<svg xmlns="http://www.w3.org/2000/svg" width="1200" height="630" viewBox="0 0 1200 630" role="img" aria-labelledby="title desc">
<title id="title">Plug Run — pick a crew, grab the stash, make the exit</title>
<desc id="desc">Official branded promotional cover. Graphic design, not a gameplay screenshot.</desc>
<defs><linearGradient id="sky" x2="0" y2="1"><stop stop-color="#101820"/><stop offset="1" stop-color="#070b0e"/></linearGradient><radialGradient id="glow"><stop stop-color="#315068" stop-opacity=".32"/><stop offset="1" stop-color="#101820" stop-opacity="0"/></radialGradient></defs>
<rect width="1200" height="630" fill="url(#sky)"/><circle cx="600" cy="290" r="530" fill="url(#glow)"/>
<path d="M0 510H1200M0 525H1200" stroke="#34454c" stroke-width="3"/>
<path d="M0 485H170V430H315V476H466V424H637V474H785V426H950V482H1200V630H0Z" fill="#172227" stroke="#2a383d" stroke-width="4"/>
<path d="M0 552H1200" stroke="#f1ca82" stroke-opacity=".35" stroke-width="4" stroke-dasharray="34 28"/>
<path d="M114 450L114 340" stroke="#9ad1ff" stroke-width="9" stroke-dasharray="18 14" opacity=".5"/><path d="M114 340L285 340" stroke="#9ad1ff" stroke-width="9" stroke-dasharray="18 14" opacity=".5"/><path d="M285 340L285 400" stroke="#9ad1ff" stroke-width="9" stroke-dasharray="18 14" opacity=".5"/><path d="M285 400L463 400" stroke="#9ad1ff" stroke-width="9" stroke-dasharray="18 14" opacity=".5"/><g transform="translate(94 302)"><path d="M0 20L20 0L40 20V48H0Z" fill="#f1ca82" stroke="#080d10" stroke-width="4"/><rect x="14" y="25" width="12" height="23" fill="#101820"/></g><g transform="translate(265 379)"><path d="M0 20L20 0L40 20V48H0Z" fill="#93bee0" stroke="#080d10" stroke-width="4"/><rect x="14" y="25" width="12" height="23" fill="#101820"/></g>
<svg x="185" y="60" width="830" height="266" viewBox="0 0 600 192">


<g transform="translate(0 8)">
  <path d="M20 135V85H64V36H94V108H50V154Z" fill="#34454c" stroke="#090d11" stroke-width="7"/>
  <path d="M35 135V99H79V55" fill="none" stroke="#9ad1ff" stroke-width="3" stroke-dasharray="9 8"/>
  <path d="M61 30L79 12L97 30V49L79 69L61 49Z" fill="#f1ca82" stroke="#090d11" stroke-width="5"/>
  <path d="M71 34H87V47H71Z" fill="#151e24"/>
  <path d="M70 33L79 25L88 33Z" fill="#151e24"/>
</g>
<path d="M128 167H555L573 154H146Z" fill="#213b4c"/>
<g font-family="Impact, Haettenschweiler, 'Arial Narrow Bold', 'Helvetica Neue', Arial, sans-serif" font-style="italic" font-weight="900" paint-order="stroke fill" stroke="#07090b" stroke-width="4" stroke-linejoin="round">
  <text x="137" y="91" font-size="94" letter-spacing="1" fill="#ede5d4">PLUG</text>
  <text x="294" y="180" font-size="94" letter-spacing="1" fill="#9ad1ff">RUN</text>
</g>
<path d="M132 113H264M126 127H244M122 141H221" stroke="#f1ca82" stroke-width="5"/>
<path d="M150 7H374" stroke="#ffffff" stroke-opacity=".35" stroke-width="2"/>
</svg>
<text x="600" y="375" text-anchor="middle" fill="#ede5d4" font-family="Arial,sans-serif" font-size="32" font-weight="800" letter-spacing="3">PICK YOUR CREW  ·  GRAB THE STASH  ·  MAKE THE EXIT</text>
<rect x="298" y="406" width="604" height="74" rx="8" fill="#152733" stroke="#9ad1ff" stroke-width="3"/>
<text x="600" y="454" text-anchor="middle" fill="#9ad1ff" font-family="Arial,sans-serif" font-size="27" font-weight="800" letter-spacing="2">PLAY FREE IN YOUR BROWSER</text>
<svg x="490" y="505" width="80" height="80" viewBox="0 0 100 100" style="color:#43b5c7"><path d="M 18 20 L 36 20 L 36 36 L 64 64 L 64 80 L 82 80" fill="none" stroke="currentColor" stroke-width="8"/><path d="M 82 20 L 64 20 L 64 36 L 36 64 L 36 80 L 18 80" fill="none" stroke="currentColor" stroke-width="8"/><path d="M 50 39 L 61 50 L 50 61 L 39 50 Z" fill="currentColor" stroke="currentColor" stroke-width="3"/></svg><svg x="565" y="505" width="80" height="80" viewBox="0 0 100 100" style="color:#d2c66a"><path d="M 50 8 L 86 29 L 86 71 L 50 92 L 14 71 L 14 29 Z" fill="none" stroke="currentColor" stroke-width="7"/><path d="M 29 35 L 43 35" fill="none" stroke="currentColor" stroke-width="5"/><path d="M 36 35 L 36 66" fill="none" stroke="currentColor" stroke-width="6"/><path d="M 29 66 L 43 66" fill="none" stroke="currentColor" stroke-width="5"/><path d="M 53 67 L 53 35 L 64 35 L 71 40 L 71 48 L 65 53 L 53 53" fill="none" stroke="currentColor" stroke-width="5"/><path d="M 63 53 L 73 67" fill="none" stroke="currentColor" stroke-width="5"/></svg><svg x="640" y="505" width="80" height="80" viewBox="0 0 100 100" style="color:#9b78d0"><circle cx="49" cy="49" r="30" fill="none" stroke="currentColor" stroke-width="5"/><circle cx="56" cy="49" r="22" fill="none" stroke="currentColor" stroke-width="2"/><path d="M 49 9 L 57 31 L 73 39 L 57 46 L 49 64 L 41 46 L 27 39 L 41 31 Z" fill="currentColor" stroke="currentColor" stroke-width="2"/><path d="M 17 81 L 78 81" fill="none" stroke="currentColor" stroke-width="5"/><path d="M 27 91 L 66 91" fill="none" stroke="currentColor" stroke-width="3"/></svg>
<text x="600" y="615" text-anchor="middle" fill="#f1ca82" font-family="Arial,sans-serif" font-size="25" font-weight="800" letter-spacing="4">PLUG-RUN.IO</text>
</svg>